<?xml version="1.0" standalone="no"?><!DOCTYPE svg PUBLIC "-//W3C//DTD SVG 1.1//EN" "http://www.w3.org/Graphics/SVG/1.1/DTD/svg11.dtd"><svg t="1544080729870" class="icon" style="" viewBox="0 0 1024 1024" version="1.1" xmlns="http://www.w3.org/2000/svg" p-id="3122" xmlns:xlink="http://www.w3.org/1999/xlink" width="200" height="200"><defs><style type="text/css"></style></defs><path d="M512 593.320097c-44.908816 0-81.320097 36.401048-81.320097 81.320097 0 20.884656 8.089235 39.726793 21.024849 54.120618-0.268106 2.282996-0.694825 4.53734-0.694825 6.869455 0 33.69031 27.298739 60.990073 60.990073 60.990073 33.69031 0 60.990073-27.298739 60.990073-60.990073 0-2.332115-0.447185-4.586458-0.695848-6.869455 12.935614-14.414291 21.025872-33.234939 21.025872-54.120618C593.320097 629.721145 556.908816 593.320097 512 593.320097M532.330024 709.670012l0 25.959232c0 11.246135-9.112542 20.330024-20.330024 20.330024-11.218506 0-20.330024-9.083889-20.330024-20.330024l0-25.959232c-12.100596-7.046486-20.330024-20.020986-20.330024-35.030841 0-22.433942 18.215874-40.660048 40.660048-40.660048s40.660048 18.226107 40.660048 40.660048C552.660048 689.649026 544.420387 702.641945 532.330024 709.670012M755.959268 430.680926 755.959268 308.700781c0-134.734634-109.23282-243.959268-243.959268-243.959268S268.040732 173.966147 268.040732 308.700781l0 121.979122c-44.908816 0-81.320097 36.401048-81.320097 81.320097L186.720635 877.93839c0 44.919049 36.411281 81.320097 81.320097 81.320097l487.918535 0c44.908816 0 81.320097-36.401048 81.320097-81.320097L837.279365 512C837.279365 467.080951 800.868083 430.680926 755.959268 430.680926M308.700781 308.700781c0-112.27204 91.018993-203.299219 203.299219-203.299219s203.299219 91.02718 203.299219 203.299219l0 121.979122L308.700781 430.679903 308.700781 308.700781zM796.619316 877.939413c0 22.444175-18.215874 40.660048-40.660048 40.660048L268.040732 918.599462c-22.444175 0-40.660048-18.215874-40.660048-40.660048L227.380684 512c0-22.433942 18.215874-40.660048 40.660048-40.660048l447.258487 0 40.660048 0c22.444175 0 40.660048 18.226107 40.660048 40.660048L796.619316 877.939413z" p-id="3123" fill="#CECECE"></path></svg>