<?xml version="1.0" standalone="no"?><!DOCTYPE svg PUBLIC "-//W3C//DTD SVG 1.1//EN" "http://www.w3.org/Graphics/SVG/1.1/DTD/svg11.dtd"><svg t="1545383679403" class="icon" style="" viewBox="0 0 1024 1024" version="1.1" xmlns="http://www.w3.org/2000/svg" p-id="28517" xmlns:xlink="http://www.w3.org/1999/xlink" width="200" height="200"><defs><style type="text/css"></style></defs><path d="M222.55 52.907c0-19.798 16.383-35.84 36.18-35.84s35.84 16.042 35.84 35.84-16.042 35.84-35.84 35.84c-19.797 0.341-36.18-16.043-36.18-35.84z m17.749 0c0 9.898 8.192 18.09 18.09 18.09s18.091-8.192 18.091-18.09-8.192-18.091-18.09-18.091-18.091 8.192-18.091 18.09z m600.746 93.184h15.702v-15.702c0-4.096 3.413-7.509 7.509-7.509s7.51 3.413 7.51 7.51v15.7h15.7c4.097 0 7.51 3.414 7.51 7.51s-3.413 7.51-7.51 7.51h-15.7v15.7c0 4.097-3.414 7.51-7.51 7.51s-7.51-3.413-7.51-7.51v-15.7h-15.7c-4.097 0-7.51-3.414-7.51-7.51-0.341-3.755 3.413-7.51 7.51-7.51zM46.763 299.008h15.701v-15.701c0-4.096 3.413-7.51 7.51-7.51 4.095 0 7.509 3.414 7.509 7.51v15.701h15.701c4.096 0 7.51 3.413 7.51 7.51 0 4.095-3.414 7.509-7.51 7.509H77.483v15.701c0 4.096-3.414 7.51-7.51 7.51s-7.509-3.414-7.509-7.51v-15.701H46.763c-4.096 0-7.51-3.414-7.51-7.51s3.414-7.509 7.51-7.509zM860.5 550.229h18.091v-18.09c0-4.779 4.096-8.875 8.875-8.875 4.778 0 8.874 4.096 8.874 8.875v18.09h18.091c4.779 0 8.875 4.096 8.875 8.875s-4.096 8.875-8.875 8.875h-18.09v18.09c0 4.779-4.097 8.875-8.875 8.875-4.779 0-8.875-4.096-8.875-8.875v-18.09h-18.09c-4.78 0-8.875-4.096-8.875-8.875s3.754-8.875 8.874-8.875zM707.925 66.22c0 7.168 5.803 13.312 13.312 13.312 7.168 0 13.312-5.803 13.312-13.312 0-7.168-5.802-13.312-13.312-13.312-7.168 0-13.312 6.144-13.312 13.312z m-596.65 69.973c0 9.899 7.85 17.75 17.749 17.75s17.75-7.851 17.75-17.75c0-9.899-7.851-17.75-17.75-17.75-9.899 0-17.75 7.851-17.75 17.75z m507.904 6.144c0 9.899 7.85 17.75 17.749 17.75s17.75-7.851 17.75-17.75c0-9.899-7.851-17.75-17.75-17.75s-17.75 7.851-17.75 17.75z m312.32 181.59c0-19.798 16.042-35.84 35.84-35.84s35.84 16.042 35.84 35.84-16.043 35.84-35.84 35.84-35.84-16.043-35.84-35.84z m17.749 0c0 9.898 8.192 18.09 18.09 18.09s18.091-8.192 18.091-18.09-8.192-18.091-18.09-18.091c-9.899-0.342-18.091 7.85-18.091 18.09zM513.024 59.732c2.048-2.048 5.12-2.048 6.827 0 1.024 1.024 1.365 2.048 1.365 3.414s-0.683 2.389-1.365 3.413l-15.702 15.701c-1.024 1.024-2.048 1.366-3.413 1.366s-2.39-0.683-3.413-1.366c-2.048-2.048-2.048-5.12 0-6.826l15.701-15.702z m-41.643 41.643c1.024-1.024 2.048-1.365 3.414-1.365s2.389 0.682 3.413 1.365c2.048 2.048 2.048 5.12 0 6.827l-15.701 15.701c-1.024 1.024-2.048 1.365-3.414 1.365s-2.389-0.682-3.413-1.365c-1.024-1.024-1.365-2.048-1.365-3.413s0.682-2.39 1.365-3.414l15.701-15.701z m3.755-17.408c-1.365 0-2.39-0.683-3.413-1.365L456.02 66.9c-1.024-1.024-1.365-2.048-1.365-3.413s0.683-2.39 1.365-3.413c2.048-2.048 5.12-2.048 6.827 0l15.701 15.701c2.048 2.048 2.048 5.12 0 6.827-1.024 0.682-2.389 1.365-3.413 1.365z m29.013 17.408l15.702 15.701c1.024 1.024 1.365 2.048 1.365 3.414s-0.683 2.389-1.365 3.413c-1.024 1.024-2.048 1.365-3.414 1.365s-2.389-0.682-3.413-1.365l-15.701-15.701c-2.048-2.048-2.048-5.12 0-6.827 1.706-2.048 5.12-2.048 6.826 0z m-3.072-9.557c0-2.731 2.048-4.779 4.779-4.779h22.187c2.73 0 4.778 2.048 4.778 4.779 0 2.73-2.048 4.778-4.778 4.778h-22.187c-2.39 0.342-4.779-2.048-4.779-4.778z m-53.589-4.779h22.187c2.73 0 4.778 2.048 4.778 4.779 0 2.73-2.048 4.778-4.778 4.778h-22.187c-2.73 0-4.779-2.048-4.779-4.778 0-2.731 2.048-4.779 4.779-4.779z m40.277-40.277c2.731 0 4.779 2.048 4.779 4.778v22.187c0 2.73-2.048 4.779-4.779 4.779s-4.778-2.048-4.778-4.779V51.541c0-2.73 2.389-4.778 4.778-4.778z m0 58.368c2.731 0 4.779 2.048 4.779 4.778v22.187c0 2.73-2.048 4.779-4.779 4.779s-4.778-2.048-4.778-4.779v-22.187c0-2.389 2.389-4.778 4.778-4.778zM90.795 462.165c2.048-2.048 5.12-2.048 6.826 0 1.024 1.024 1.366 2.048 1.366 3.414s-0.683 2.389-1.366 3.413L81.92 484.693c-1.024 1.024-2.048 1.366-3.413 1.366s-2.39-0.683-3.414-1.366c-2.048-2.048-2.048-5.12 0-6.826l15.702-15.702z m-41.302 41.302c1.024-1.024 2.048-1.366 3.414-1.366s2.389 0.683 3.413 1.366c2.048 2.048 2.048 5.12 0 6.826l-15.701 15.702c-1.024 1.024-2.048 1.365-3.414 1.365s-2.389-0.683-3.413-1.365c-1.024-1.024-1.365-2.048-1.365-3.414s0.682-2.389 1.365-3.413l15.701-15.701z m3.414-17.408c-1.366 0-2.39-0.683-3.414-1.366l-15.701-15.701c-1.024-1.024-1.365-2.048-1.365-3.413s0.682-2.39 1.365-3.414c2.048-2.048 5.12-2.048 6.827 0l15.701 15.702c2.048 2.048 2.048 5.12 0 6.826-0.683 1.024-2.048 1.366-3.413 1.366z m29.354 17.408l15.702 15.701c1.024 1.024 1.365 2.048 1.365 3.413s-0.683 2.39-1.365 3.414c-1.024 1.024-2.048 1.365-3.414 1.365s-2.389-0.683-3.413-1.365l-15.701-15.702c-2.048-2.048-2.048-5.12 0-6.826 1.706-1.707 4.778-1.707 6.826 0z m-3.072-9.216c0-2.731 2.048-4.779 4.779-4.779h22.187c2.73 0 4.778 2.048 4.778 4.779 0 2.73-2.048 4.778-4.778 4.778H83.968c-2.73 0-4.779-2.048-4.779-4.778zM25.6 489.472h22.187c2.73 0 4.778 2.048 4.778 4.779 0 2.73-2.048 4.778-4.778 4.778H25.6c-2.73 0-4.779-2.048-4.779-4.778-0.341-2.731 2.048-4.779 4.779-4.779z m40.277-40.619c2.731 0 4.779 2.048 4.779 4.779v22.187c0 2.73-2.048 4.778-4.779 4.778-2.73 0-4.778-2.048-4.778-4.778v-22.187c0-2.73 2.048-4.779 4.778-4.779z m0 58.71c2.731 0 4.779 2.048 4.779 4.778v22.187c0 2.73-2.048 4.779-4.779 4.779-2.73 0-4.778-2.048-4.778-4.779v-22.187c0-2.73 2.048-4.778 4.778-4.778z m888.15 499.37h-31.403c-7.168 0-13.312-5.802-13.312-13.312 0-7.168 5.803-13.312 13.312-13.312h31.403c7.168 0 13.312 5.803 13.312 13.312s-6.144 13.312-13.312 13.312z m-843.776 0H69.973c-7.168 0-13.312-5.802-13.312-13.312 0-7.168 5.803-13.312 13.312-13.312h40.278c7.168 0 13.312 5.803 13.312 13.312s-5.803 13.312-13.312 13.312z m773.12 0H154.965c-7.168 0-13.312-5.802-13.312-13.312 0-7.168 5.803-13.312 13.312-13.312h728.406c7.168 0 13.312 5.803 13.312 13.312s-6.144 13.312-13.312 13.312z m0 0" fill="#C3C3C3" p-id="28518"></path><path d="M324.608 390.827h418.475v478.208H324.608z" fill="#EEEEEE" p-id="28519"></path><path d="M743.083 518.144c-7.168 123.563-52.224 351.232-288.768 351.232h288.768V518.144z m0-77.824z" fill="#E0E0E0" p-id="28520"></path><path d="M732.16 308.224H291.84a43.557 43.557 0 0 0-43.69 43.69v506.54a43.557 43.557 0 0 0 43.69 43.69h440.661a43.557 43.557 0 0 0 43.691-43.69v-506.54c-0.341-24.234-19.797-43.69-44.032-43.69z m10.923 546.816c0 7.85-6.144 13.995-13.995 13.995H294.912c-7.85 0-13.995-6.144-13.995-13.995V354.987c0-7.851 6.144-13.995 13.995-13.995h434.176c7.85 0 13.995 6.144 13.995 13.995V855.04z" fill="#C3C3C3" p-id="28521"></path><path d="M363.52 473.088h132.096c9.216 0 16.384-7.51 16.384-16.384 0-9.216-7.51-16.384-16.384-16.384H363.52c-9.216 0-16.384 7.51-16.384 16.384 0 9.216 7.168 16.384 16.384 16.384z m0 98.987h181.59c9.215 0 16.383-7.51 16.383-16.384 0-9.216-7.509-16.384-16.384-16.384H363.52c-9.216 0-16.384 7.509-16.384 16.384 0 9.216 7.168 16.384 16.384 16.384z m0 98.986h231.083c9.216 0 16.384-7.509 16.384-16.384 0-9.216-7.51-16.384-16.384-16.384H363.52c-9.216 0-16.384 7.51-16.384 16.384 0 9.216 7.168 16.384 16.384 16.384z m263.85 66.219H363.52c-9.216 0-16.384 7.51-16.384 16.384 0 9.216 7.51 16.384 16.384 16.384h263.85c9.217 0 16.385-7.51 16.385-16.384 0.341-9.216-7.168-16.384-16.384-16.384z" fill="#C3C3C3" p-id="28522"></path></svg>