<?xml version="1.0" standalone="no"?><!DOCTYPE svg PUBLIC "-//W3C//DTD SVG 1.1//EN" "http://www.w3.org/Graphics/SVG/1.1/DTD/svg11.dtd"><svg t="1545383590003" class="icon" style="" viewBox="0 0 1254 1024" version="1.1" xmlns="http://www.w3.org/2000/svg" p-id="27111" xmlns:xlink="http://www.w3.org/1999/xlink" width="244.921875" height="200"><defs><style type="text/css"></style></defs><path d="M900.376068 428.034188h266.940171v490.119658h-266.940171zM766.905983 242.324786V193.367521h-126.358974v48.957265h-47.31624v549.196582h220.991453V242.324786zM64.820513 447.452991h284.17094v470.700855H64.820513z" fill="#9CC9EB" p-id="27112"></path><path d="M891.076923 242.324786h-47.042735v549.196582h220.717949V129.094017z" fill="#9CC9EB" p-id="27113"></path><path d="M561.777778 197.470085V94.08547h-50.871795V0h-123.897436v94.08547h-50.871795v103.384615H266.119658v720.683761H631.794872V197.470085z" fill="#9CC9EB" p-id="27114"></path><path d="M301.948718 309.333333h38.837607v26.529915h-38.837607zM368.683761 309.333333H407.521368v26.529915h-38.837607zM434.324786 309.333333H473.162393v26.529915h-38.837607zM500.786325 309.333333h38.837607v26.529915h-38.837607zM566.42735 309.333333h38.837607v26.529915h-38.837607zM301.948718 345.162393h38.837607v26.529915h-38.837607zM368.683761 345.162393H407.521368v26.529915h-38.837607zM434.324786 345.162393H473.162393v26.529915h-38.837607zM500.786325 345.162393h38.837607v26.529915h-38.837607zM566.42735 345.162393h38.837607v26.529915h-38.837607z" fill="#84BBE6" p-id="27115"></path><path d="M301.948718 382.632479h38.837607v26.529914h-38.837607zM368.683761 382.632479H407.521368v26.529914h-38.837607zM434.324786 382.632479H473.162393v26.529914h-38.837607zM500.786325 382.632479h38.837607v26.529914h-38.837607zM566.42735 382.632479h38.837607v26.529914h-38.837607z" fill="#84BBE6" p-id="27116"></path><path d="M562.324786 329.025641h47.042735v6.837607h-47.042735zM562.324786 365.401709h47.042735v6.290599h-47.042735zM562.324786 402.324786h47.042735v6.837607h-47.042735zM496.957265 329.025641h47.042735v6.837607h-47.042735zM496.957265 365.401709h47.042735v6.290599h-47.042735zM496.957265 402.324786h47.042735v6.837607h-47.042735z" fill="#84BBE6" p-id="27117"></path><path d="M430.222222 329.025641h47.042735v6.837607h-47.042735zM430.222222 365.401709h47.042735v6.290599h-47.042735zM430.222222 402.324786h47.042735v6.837607h-47.042735z" fill="#84BBE6" p-id="27118"></path><path d="M364.581197 329.025641h47.042735v6.837607h-47.042735zM364.581197 365.401709h47.042735v6.290599h-47.042735zM364.581197 402.324786h47.042735v6.837607h-47.042735z" fill="#84BBE6" p-id="27119"></path><path d="M298.119658 329.025641h47.042735v6.837607H298.119658zM298.119658 365.401709h47.042735v6.290599H298.119658zM298.119658 402.324786h47.042735v6.837607H298.119658z" fill="#84BBE6" p-id="27120"></path><path d="M372.512821 169.846154h35.555555V194.188034h-35.555555zM433.504274 169.846154h35.555555V194.188034h-35.555555zM493.675214 169.846154h35.555555V194.188034h-35.555555z" fill="#84BBE6" p-id="27121"></path><path d="M372.512821 202.940171h35.555555v24.34188h-35.555555zM433.504274 202.940171h35.555555v24.34188h-35.555555zM493.675214 202.940171h35.555555v24.34188h-35.555555z" fill="#84BBE6" p-id="27122"></path><path d="M372.512821 237.128205h35.555555v24.34188h-35.555555zM433.504274 237.128205h35.555555v24.34188h-35.555555zM493.675214 237.128205h35.555555v24.34188h-35.555555z" fill="#84BBE6" p-id="27123"></path><path d="M490.119658 187.897436h42.940171V194.188034h-42.940171zM490.119658 221.264957h42.940171V227.008547h-42.940171zM490.119658 255.179487h42.940171v6.290598h-42.940171z" fill="#84BBE6" p-id="27124"></path><path d="M429.948718 187.897436h42.940171V194.188034h-42.940171zM429.948718 221.264957h42.940171V227.008547h-42.940171zM429.948718 255.179487h42.940171v6.290598h-42.940171z" fill="#84BBE6" p-id="27125"></path><path d="M368.683761 187.897436h42.940171V194.188034h-42.940171zM368.683761 221.264957h42.940171V227.008547h-42.940171zM368.683761 255.179487h42.940171v6.290598h-42.940171z" fill="#84BBE6" p-id="27126"></path><path d="M301.948718 429.401709h38.837607v26.529915h-38.837607zM368.683761 429.401709H407.521368v26.529915h-38.837607zM434.324786 429.401709H473.162393v26.529915h-38.837607zM500.786325 429.401709h38.837607v26.529915h-38.837607zM566.42735 429.401709h38.837607v26.529915h-38.837607z" fill="#84BBE6" p-id="27127"></path><path d="M301.948718 465.230769h38.837607v26.529915h-38.837607zM368.683761 465.230769H407.521368v26.529915h-38.837607zM434.324786 465.230769H473.162393v26.529915h-38.837607zM500.786325 465.230769h38.837607v26.529915h-38.837607zM566.42735 465.230769h38.837607v26.529915h-38.837607z" fill="#84BBE6" p-id="27128"></path><path d="M301.948718 502.700855h38.837607v26.529914h-38.837607zM368.683761 502.700855H407.521368v26.529914h-38.837607zM434.324786 502.700855H473.162393v26.529914h-38.837607zM500.786325 502.700855h38.837607v26.529914h-38.837607zM566.42735 502.700855h38.837607v26.529914h-38.837607z" fill="#84BBE6" p-id="27129"></path><path d="M562.324786 449.094017h47.042735v6.837607h-47.042735zM562.324786 485.470085h47.042735v6.290599h-47.042735zM562.324786 522.393162h47.042735v6.837607h-47.042735zM496.957265 449.094017h47.042735v6.837607h-47.042735zM496.957265 485.470085h47.042735v6.290599h-47.042735zM496.957265 522.393162h47.042735v6.837607h-47.042735z" fill="#84BBE6" p-id="27130"></path><path d="M430.222222 449.094017h47.042735v6.837607h-47.042735zM430.222222 485.470085h47.042735v6.290599h-47.042735zM430.222222 522.393162h47.042735v6.837607h-47.042735z" fill="#84BBE6" p-id="27131"></path><path d="M364.581197 449.094017h47.042735v6.837607h-47.042735zM364.581197 485.470085h47.042735v6.290599h-47.042735zM364.581197 522.393162h47.042735v6.837607h-47.042735z" fill="#84BBE6" p-id="27132"></path><path d="M298.119658 449.094017h47.042735v6.837607H298.119658zM298.119658 485.470085h47.042735v6.290599H298.119658zM298.119658 522.393162h47.042735v6.837607H298.119658z" fill="#84BBE6" p-id="27133"></path><path d="M301.948718 549.470085h38.837607v26.529915h-38.837607zM368.683761 549.470085H407.521368v26.529915h-38.837607zM434.324786 549.470085H473.162393v26.529915h-38.837607zM500.786325 549.470085h38.837607v26.529915h-38.837607zM566.42735 549.470085h38.837607v26.529915h-38.837607z" fill="#84BBE6" p-id="27134"></path><path d="M301.948718 585.299145h38.837607v26.529915h-38.837607zM368.683761 585.299145H407.521368v26.529915h-38.837607zM434.324786 585.299145H473.162393v26.529915h-38.837607zM500.786325 585.299145h38.837607v26.529915h-38.837607zM566.42735 585.299145h38.837607v26.529915h-38.837607z" fill="#84BBE6" p-id="27135"></path><path d="M301.948718 622.769231h38.837607v26.529914h-38.837607zM368.683761 622.769231H407.521368v26.529914h-38.837607zM434.324786 622.769231H473.162393v26.529914h-38.837607zM500.786325 622.769231h38.837607v26.529914h-38.837607zM566.42735 622.769231h38.837607v26.529914h-38.837607z" fill="#84BBE6" p-id="27136"></path><path d="M562.324786 569.162393h47.042735v6.837607h-47.042735zM562.324786 605.538462h47.042735v6.290598h-47.042735zM562.324786 642.461538h47.042735v6.837607h-47.042735zM496.957265 569.162393h47.042735v6.837607h-47.042735zM496.957265 605.538462h47.042735v6.290598h-47.042735zM496.957265 642.461538h47.042735v6.837607h-47.042735z" fill="#84BBE6" p-id="27137"></path><path d="M430.222222 569.162393h47.042735v6.837607h-47.042735zM430.222222 605.538462h47.042735v6.290598h-47.042735zM430.222222 642.461538h47.042735v6.837607h-47.042735z" fill="#84BBE6" p-id="27138"></path><path d="M364.581197 569.162393h47.042735v6.837607h-47.042735zM364.581197 605.538462h47.042735v6.290598h-47.042735zM364.581197 642.461538h47.042735v6.837607h-47.042735z" fill="#84BBE6" p-id="27139"></path><path d="M298.119658 569.162393h47.042735v6.837607H298.119658zM298.119658 605.538462h47.042735v6.290598H298.119658zM298.119658 642.461538h47.042735v6.837607H298.119658z" fill="#84BBE6" p-id="27140"></path><path d="M693.333333 310.42735h219.897436v608h-219.897436z" fill="#9CC9EB" p-id="27141"></path><path d="M723.965812 349.538462h42.666667v16.957264h-42.666667zM723.965812 390.290598h42.666667v16.957265h-42.666667zM723.965812 431.316239h42.666667v16.957265h-42.666667zM723.965812 472.068376h42.666667v16.957265h-42.666667zM723.965812 513.094017h42.666667v16.957265h-42.666667zM723.965812 553.846154h42.666667v16.957265h-42.666667zM723.965812 594.871795h42.666667v16.957265h-42.666667zM723.965812 635.623932h42.666667v16.957265h-42.666667zM723.965812 676.649573h42.666667v16.957265h-42.666667z" fill="#84BBE6" p-id="27142"></path><path d="M784.957265 349.538462h42.666667v16.957264H784.957265zM784.957265 390.290598h42.666667v16.957265H784.957265zM784.957265 431.316239h42.666667v16.957265H784.957265zM784.957265 472.068376h42.666667v16.957265H784.957265zM784.957265 513.094017h42.666667v16.957265H784.957265zM784.957265 553.846154h42.666667v16.957265H784.957265zM784.957265 594.871795h42.666667v16.957265H784.957265zM784.957265 635.623932h42.666667v16.957265H784.957265zM784.957265 676.649573h42.666667v16.957265H784.957265z" fill="#84BBE6" p-id="27143"></path><path d="M845.948718 349.538462h42.666667v16.957264h-42.666667zM845.948718 390.290598h42.666667v16.957265h-42.666667zM845.948718 431.316239h42.666667v16.957265h-42.666667zM845.948718 472.068376h42.666667v16.957265h-42.666667zM845.948718 513.094017h42.666667v16.957265h-42.666667zM845.948718 553.846154h42.666667v16.957265h-42.666667zM845.948718 594.871795h42.666667v16.957265h-42.666667zM845.948718 635.623932h42.666667v16.957265h-42.666667zM845.948718 676.649573h42.666667v16.957265h-42.666667z" fill="#84BBE6" p-id="27144"></path><path d="M723.965812 349.538462h10.393162v16.957264h-10.393162zM723.965812 390.290598h10.393162v16.957265h-10.393162zM723.965812 431.316239h10.393162v16.957265h-10.393162zM723.965812 472.068376h10.393162v16.957265h-10.393162zM723.965812 513.094017h10.393162v16.957265h-10.393162zM723.965812 553.846154h10.393162v16.957265h-10.393162zM723.965812 594.871795h10.393162v16.957265h-10.393162zM723.965812 635.623932h10.393162v16.957265h-10.393162zM723.965812 676.649573h10.393162v16.957265h-10.393162z" fill="#84BBE6" p-id="27145"></path><path d="M784.957265 349.538462h10.393162v16.957264H784.957265zM784.957265 390.290598h10.393162v16.957265H784.957265zM784.957265 431.316239h10.393162v16.957265H784.957265zM784.957265 472.068376h10.393162v16.957265H784.957265zM784.957265 513.094017h10.393162v16.957265H784.957265zM784.957265 553.846154h10.393162v16.957265H784.957265zM784.957265 594.871795h10.393162v16.957265H784.957265zM784.957265 635.623932h10.393162v16.957265H784.957265zM784.957265 676.649573h10.393162v16.957265H784.957265z" fill="#84BBE6" p-id="27146"></path><path d="M845.948718 349.538462h9.846154v16.957264h-9.846154zM845.948718 390.290598h9.846154v16.957265h-9.846154zM845.948718 431.316239h9.846154v16.957265h-9.846154zM845.948718 472.068376h9.846154v16.957265h-9.846154zM845.948718 513.094017h9.846154v16.957265h-9.846154zM845.948718 553.846154h9.846154v16.957265h-9.846154zM845.948718 594.871795h9.846154v16.957265h-9.846154zM845.948718 635.623932h9.846154v16.957265h-9.846154zM845.948718 676.649573h9.846154v16.957265h-9.846154z" fill="#84BBE6" p-id="27147"></path><path d="M996.376068 534.153846h258.188035v384h-258.188035z" fill="#9CC9EB" p-id="27148"></path><path d="M1048.068376 591.042735h31.726496v57.709402h-31.726496zM1048.068376 676.649573h31.726496v57.709401h-31.726496zM1048.068376 762.25641h31.726496v57.709402h-31.726496zM1048.068376 847.863248h31.726496v57.709402h-31.726496z" fill="#84BBE6" p-id="27149"></path><path d="M1113.709402 591.042735h31.726495v57.709402h-31.726495zM1113.709402 676.649573h31.726495v57.709401h-31.726495zM1113.709402 762.25641h31.726495v57.709402h-31.726495zM1113.709402 847.863248h31.726495v57.709402h-31.726495z" fill="#84BBE6" p-id="27150"></path><path d="M1179.076923 591.042735h31.726496v57.709402h-31.726496zM1179.076923 676.649573h31.726496v57.709401h-31.726496zM1179.076923 762.25641h31.726496v57.709402h-31.726496zM1179.076923 847.863248h31.726496v57.709402h-31.726496z" fill="#84BBE6" p-id="27151"></path><path d="M253.811966 613.74359H0v20.786325h6.017094v283.623931h239.589744V634.529915h8.205128z" fill="#9CC9EB" p-id="27152"></path><path d="M49.230769 690.598291h148.239316v26.529914H49.230769zM49.230769 729.709402h148.239316v26.529914H49.230769zM49.230769 769.094017h148.239316v26.529915H49.230769zM49.230769 808.205128h148.239316v26.529915H49.230769zM49.230769 886.700855h148.239316v26.529914H49.230769zM49.230769 847.589744h148.239316v26.529914H49.230769zM42.119658 687.316239H49.230769v230.290599h-7.111111z" fill="#84BBE6" p-id="27153"></path><path d="M194.188034 687.863248h7.111111v230.290598H194.188034z" fill="#84BBE6" p-id="27154"></path><path d="M464.410256 865.91453H109.128205v20.786325H117.606838v31.452991h333.948718v-31.452991h12.8547z" fill="#9CC9EB" p-id="27155"></path><path d="M859.897436 744.205128v-190.905983h-228.923077v190.905983h-94.08547v173.948718h417.094017v-173.948718z" fill="#9CC9EB" p-id="27156"></path><path d="M585.846154 800.820513h318.905983v40.478632H585.846154zM585.846154 860.717949h318.905983v40.478632H585.846154zM672.273504 583.65812h146.051282v40.478632h-146.051282zM672.273504 643.555556h146.051282v40.478632h-146.051282zM672.273504 703.726496h146.051282v40.478632h-146.051282z" fill="#84BBE6" p-id="27157"></path><path d="M661.059829 739.82906h169.57265v8.478632h-169.57265z" fill="#84BBE6" p-id="27158"></path><path d="M661.059829 679.931624h169.57265v8.478632h-169.57265z" fill="#84BBE6" p-id="27159"></path><path d="M661.059829 619.760684h169.57265v8.478632h-169.57265z" fill="#84BBE6" p-id="27160"></path><path d="M815.863248 789.333333H1011.965812v128.820513h-196.102564z" fill="#9CC9EB" p-id="27161"></path><path d="M1085.264957 1013.059829c0 6.017094-230.017094 10.940171-513.641025 10.940171s-402.324786-4.923077-402.324787-10.940171 118.700855-10.940171 402.324787-10.940171 513.641026 4.923077 513.641025 10.940171z" fill="#1B4157" p-id="27162"></path><path d="M322.188034 894.358974c36.376068 0 65.641026 27.623932 65.641026 62.08547 0 34.188034-29.538462 62.08547-65.641026 62.085471h-18.324786v-123.897436h18.324786v-0.273505zM665.162393 894.358974c36.376068 0 65.641026 27.623932 65.641026 62.08547 0 34.188034-29.538462 62.08547-65.641026 62.085471h-18.324786v-123.897436h18.324786v-0.273505z" fill="#0C212B" p-id="27163"></path><path d="M322.188034 894.358974c36.376068 0 65.641026 27.623932 65.641026 62.08547 0 34.188034-29.538462 62.08547-65.641026 62.085471h-18.324786v-123.897436h18.324786v-0.273505z" fill="#0C212B" p-id="27164"></path><path d="M381.264957 952.615385c-5.74359-43.760684 36.649573-79.863248 83.965812-67.555556 24.34188 6.290598 43.213675 26.529915 46.495727 51.418803 5.74359 43.760684-36.649573 79.863248-83.965812 67.555556-24.34188-6.017094-43.213675-26.25641-46.495727-51.418803zM815.589744 882.598291c36.376068 0 65.641026 27.623932 65.641025 62.08547 0 34.188034-29.538462 62.08547-65.641025 62.08547h-18.324787v-124.17094h18.324787z" fill="#0C212B" p-id="27165"></path><path d="M732.17094 952.615385c-5.74359-43.760684 36.649573-79.863248 83.965812-67.555556 24.34188 6.290598 43.213675 26.529915 46.495727 51.418803 5.74359 43.760684-36.649573 79.863248-83.965812 67.555556-24.34188-6.017094-43.213675-26.25641-46.495727-51.418803z" fill="#0C212B" p-id="27166"></path><path d="M646.837607 551.111111h337.230769v109.948718H646.837607z" fill="#E2BB7A" p-id="27167"></path><path d="M512.273504 660.512821h269.675214v254.358974h-269.675214z" fill="#E2BB7A" p-id="27168"></path><path d="M512.273504 768.273504h269.675214v39.111111h-269.675214z" fill="#CBA268" p-id="27169"></path><path d="M618.940171 768.273504h56.34188v39.111111h-56.34188z" fill="#A77844" p-id="27170"></path><path d="M626.598291 660.512821h41.299145v254.358974h-41.299145z" fill="#CBA268" p-id="27171"></path><path d="M781.948718 660.512821h202.393162v254.358974h-202.393162z" fill="#CBA269" p-id="27172"></path><path d="M781.675214 768.273504h202.393162v39.111111h-202.393162z" fill="#A77844" p-id="27173"></path><path d="M854.153846 768.273504h56.34188v39.111111h-56.34188z" fill="#956C3E" p-id="27174"></path><path d="M781.948718 661.059829h202.393162l100.923077-94.905983h-202.119658z" fill="#A47743" p-id="27175"></path><path d="M861.538462 660.786325h41.299145v254.358974H861.538462z" fill="#A77844" p-id="27176"></path><path d="M861.538462 660.786325h41.572649l100.102564-94.632479h-41.299145z" fill="#956C3E" p-id="27177"></path><path d="M781.948718 660.786325h-269.675214l-101.196581-95.452992h269.675214z" fill="#CBA269" p-id="27178"></path><path d="M667.897436 660.786325H626.324786l-101.196581-95.452992h41.57265z" fill="#A77844" p-id="27179"></path><path d="M189.811966 956.17094h592.136752v-41.299145H189.811966c-11.487179 0-20.512821 9.299145-20.512821 20.51282 0 11.760684 9.025641 20.786325 20.512821 20.786325z" fill="#1B4157" p-id="27180"></path><path d="M182.153846 915.145299h330.119658v-254.358974h-165.470085c-32.273504 0-62.358974 15.042735-80.410257 40.205128l-67.555555 94.08547c-10.940171 15.042735-16.683761 33.094017-16.683761 51.418803v68.649573z" fill="#EA524F" p-id="27181"></path><path d="M432.957265 811.213675V689.230769h-86.153846c-22.153846 0-42.940171 10.393162-55.247863 27.623932l-67.555556 94.08547h208.957265v0.273504z" fill="#F2F2F2" p-id="27182"></path><path d="M472.615385 660.512821h39.658119v254.358974h-39.658119z" fill="#C33835" p-id="27183"></path><path d="M644.102564 882.598291c43.213675 0 77.948718 32.820513 77.948718 73.572649h-155.897436c-0.273504-40.478632 34.735043-73.57265 77.948718-73.572649zM300.854701 882.598291c43.213675 0 77.948718 32.820513 77.948718 73.572649h-155.897436c0-40.478632 34.735043-73.57265 77.948718-73.572649z" fill="#0C212B" p-id="27184"></path><path d="M581.74359 964.376068c-5.74359-43.760684 36.649573-79.863248 83.965812-67.555555 24.615385 6.290598 43.213675 26.529915 46.495726 51.418803 5.74359 43.760684-36.649573 79.863248-83.965812 67.555556-24.34188-6.290598-42.940171-26.529915-46.495726-51.418804z" fill="#202745" p-id="27185"></path><path d="M615.111111 960.273504c-2.735043-21.333333 17.777778-39.111111 40.752137-33.367521 12.307692 3.008547 21.880342 12.854701 23.521367 25.435897 2.735043 21.333333-17.777778 39.111111-40.752136 33.367522-12.581197-3.008547-21.880342-12.854701-23.521368-25.435898z" fill="#F2F2F2" p-id="27186"></path><path d="M238.769231 964.376068c-5.74359-43.760684 36.649573-79.863248 83.965812-67.555555 24.615385 6.290598 43.213675 26.529915 46.495726 51.418803 5.74359 43.760684-36.649573 79.863248-83.965812 67.555556-24.615385-6.290598-43.213675-26.529915-46.495726-51.418804z" fill="#202745" p-id="27187"></path><path d="M271.863248 960.273504c-2.735043-21.333333 17.777778-39.111111 40.752137-33.367521 12.307692 3.008547 21.880342 12.854701 23.521367 25.435897 2.735043 21.333333-17.777778 39.111111-40.752137 33.367522-12.581197-3.008547-21.880342-13.128205-23.521367-25.435898z" fill="#F2F2F2" p-id="27188"></path><path d="M781.948718 870.290598h28.17094v25.162393h-28.17094z" fill="#C33835" p-id="27189"></path><path d="M753.777778 870.290598h28.17094v25.162393h-28.17094z" fill="#EA524F" p-id="27190"></path><path d="M955.897436 870.290598h28.17094v25.162393h-28.17094z" fill="#C33835" p-id="27191"></path><path d="M403.965812 834.735043h15.863248c7.384615 0 13.401709-6.017094 13.401709-13.40171h-42.393162c-0.273504 7.384615 5.74359 13.401709 13.128205 13.40171z" fill="#C33835" p-id="27192"></path><path d="M400.683761 831.452991h22.42735c5.470085 0 10.119658-4.376068 10.119658-10.119658h-42.393162c-0.273504 5.470085 4.102564 10.119658 9.846154 10.119658z" fill="#202745" p-id="27193"></path><path d="M207.863248 882.598291c0-13.401709-11.487179-24.068376-25.709402-24.068376v48.410256c14.222222 0 25.709402-10.940171 25.709402-24.34188z" fill="#F2F2F2" p-id="27194"></path><path d="M984.34188 915.145299h-202.393162c-7.111111 0-12.854701 5.470085-12.854701 12.307692v16.683761c0 6.837607 5.74359 12.307692 12.854701 12.307692h202.393162c7.111111 0 12.854701-5.470085 12.854701-12.307692v-16.683761c0-6.837607-5.74359-12.307692-12.854701-12.307692z" fill="#193140" p-id="27195"></path><path d="M805.196581 937.025641c1.094017-6.017094-4.649573-11.213675-10.940171-9.846154-3.82906 0.547009-6.837607 3.555556-7.384615 7.111111-1.094017 6.017094 4.649573 11.213675 10.940171 9.846154 3.82906-0.547009 6.837607-3.282051 7.384615-7.111111zM821.333333 936.478632c0.547009-3.008547-2.188034-5.470085-5.196581-5.196581-1.91453 0.273504-3.555556 1.641026-3.82906 3.555556-0.547009 3.008547 2.188034 5.470085 5.196582 5.196581 1.641026-0.273504 3.282051-1.641026 3.829059-3.555556zM961.094017 934.290598c-0.820513 5.74359 4.376068 10.940171 10.393162 10.119658 3.82906-0.547009 7.111111-3.282051 7.931624-7.384615 1.094017-6.017094-4.649573-11.213675-10.940171-10.119658-3.82906 0.820513-6.837607 3.555556-7.384615 7.384615zM944.957265 934.837607c-0.547009 3.008547 2.188034 5.470085 5.196581 5.196581 1.91453-0.273504 3.555556-1.641026 3.82906-3.555556 0.547009-3.008547-2.188034-5.470085-5.196581-5.196581-1.91453 0.273504-3.555556 1.641026-3.82906 3.555556z" fill="#F2F2F2" p-id="27196"></path><path d="M1099.760684 449.641026c1.367521-9.299145-7.111111-17.230769-16.957265-15.31624-5.74359 1.094017-10.666667 5.470085-11.48718 11.213676-1.367521 9.299145 7.111111 17.230769 16.957265 15.316239 5.74359-1.094017 10.393162-5.470085 11.48718-11.213675z" fill="#1B4157" p-id="27197"></path><path d="M1112.888889 348.717949c-15.042735-14.222222-39.65812-14.222222-54.700855 0-12.034188 11.487179-14.495726 28.444444-7.111111 42.119658l0.273504 0.273504c0.547009 1.094017 1.367521 2.188034 1.91453 3.282051l32.547009 52.786325 32.547008-52.786325c0.820513-1.094017 1.367521-2.188034 1.91453-3.282051l0.273505-0.273504c6.837607-13.401709 4.376068-30.632479-7.65812-42.119658z m-27.623932 43.213675c-10.119658 0-18.324786-7.65812-18.324786-17.230769s8.205128-17.230769 18.324786-17.23077 18.324786 7.65812 18.324787 17.23077-8.205128 17.230769-18.324787 17.230769z" fill="#EA524F" p-id="27198"></path><path d="M539.350427 252.17094c1.367521-9.299145-7.111111-17.230769-16.957265-15.316239-5.74359 1.094017-10.666667 5.470085-11.487179 11.213675-1.367521 9.299145 7.111111 17.230769 16.957265 15.316239 6.017094-0.820513 10.666667-5.196581 11.487179-11.213675z" fill="#1B4157" p-id="27199"></path><path d="M552.478632 151.521368c-15.042735-14.222222-39.65812-14.222222-54.700854 0-12.034188 11.487179-14.495726 28.444444-7.111111 42.119658l0.273504 0.273504c0.547009 1.094017 1.367521 2.188034 1.91453 3.282051l32.547008 52.786325L557.948718 197.196581c0.820513-1.094017 1.367521-2.188034 1.91453-3.282051l0.273504-0.273504c6.837607-13.675214 4.649573-30.632479-7.65812-42.119658z m-27.350427 42.94017c-10.119658 0-18.324786-7.65812-18.324786-17.230769s8.205128-17.230769 18.324786-17.230769 18.324786 7.65812 18.324786 17.230769-8.205128 17.230769-18.324786 17.230769z" fill="#EA524F" p-id="27200"></path><path d="M149.333333 521.57265c1.367521-9.299145-7.111111-17.230769-16.957265-15.31624-5.74359 1.094017-10.666667 5.470085-11.487179 11.213675-1.367521 9.299145 7.111111 17.230769 16.957265 15.31624 6.017094-1.094017 10.666667-5.470085 11.487179-11.213675z" fill="#1B4157" p-id="27201"></path><path d="M162.461538 420.923077c-15.042735-14.222222-39.65812-14.222222-54.700854 0-12.034188 11.487179-14.495726 28.444444-7.111111 42.119658l0.273504 0.273504c0.547009 1.094017 1.367521 2.188034 1.91453 3.282052l32.547008 52.786324 32.547009-52.786324c0.820513-1.094017 1.367521-2.188034 1.91453-3.282052l0.273504-0.273504c6.837607-13.675214 4.649573-30.905983-7.65812-42.119658z m-27.350427 42.940171c-10.119658 0-18.324786-7.65812-18.324786-17.230769s8.205128-17.230769 18.324786-17.23077 18.324786 7.65812 18.324786 17.23077-8.205128 17.230769-18.324786 17.230769z" fill="#EA524F" p-id="27202"></path></svg>