<?xml version="1.0" standalone="no"?><!DOCTYPE svg PUBLIC "-//W3C//DTD SVG 1.1//EN" "http://www.w3.org/Graphics/SVG/1.1/DTD/svg11.dtd"><svg t="1545299955427" class="icon" style="" viewBox="0 0 1024 1024" version="1.1" xmlns="http://www.w3.org/2000/svg" p-id="1746" xmlns:xlink="http://www.w3.org/1999/xlink" width="200" height="200"><defs><style type="text/css"></style></defs><path d="M1024 307.2c0-6.4 0-6.4 0 0 0-6.4 0-6.4 0 0L844.8 12.8c-6.4-6.4-12.8-12.8-19.2-12.8H198.4c-6.4 0-12.8 6.4-19.2 12.8L6.4 300.8v115.2c-6.4 19.2 6.4 32 12.8 32s19.2-12.8 19.2-19.2V332.8h934.4v531.2c0 64-51.2 108.8-108.8 108.8H153.6c-64 0-108.8-51.2-108.8-108.8 0-12.8-12.8-19.2-19.2-19.2s-25.6 12.8-25.6 25.6C0 953.6 70.4 1024 153.6 1024h710.4c83.2 0 153.6-70.4 153.6-153.6V313.6l6.4-6.4zM211.2 44.8h601.6L960 288H64L211.2 44.8z" p-id="1747"></path><path d="M19.2 556.8h358.4c12.8 0 19.2-12.8 19.2-19.2S390.4 512 377.6 512H19.2c-6.4 0-19.2 12.8-19.2 19.2s12.8 25.6 19.2 25.6zM19.2 665.6h268.8c12.8 0 19.2-12.8 19.2-19.2 0-12.8-12.8-19.2-19.2-19.2H19.2c-6.4-6.4-19.2 6.4-19.2 19.2 0 12.8 12.8 19.2 19.2 19.2zM19.2 780.8h179.2c12.8 0 19.2-12.8 19.2-19.2s-12.8-19.2-19.2-19.2H19.2c-12.8 0-19.2 12.8-19.2 19.2s12.8 19.2 19.2 19.2zM576 646.4c0 12.8 12.8 19.2 19.2 19.2h211.2l-70.4 70.4c-6.4 6.4-6.4 25.6 0 32 6.4 6.4 12.8 6.4 12.8 6.4s12.8 0 12.8-6.4l108.8-108.8 6.4-6.4v-19.2s0-6.4-6.4-6.4l-108.8-108.8c-6.4-6.4-25.6-6.4-32 0-6.4 6.4-6.4 25.6 0 32l70.4 70.4H601.6c-12.8 0-25.6 12.8-25.6 25.6z" p-id="1748"></path></svg>