<?xml version="1.0" standalone="no"?><!DOCTYPE svg PUBLIC "-//W3C//DTD SVG 1.1//EN" "http://www.w3.org/Graphics/SVG/1.1/DTD/svg11.dtd"><svg t="1544077103483" class="icon" style="" viewBox="0 0 1024 1024" version="1.1" xmlns="http://www.w3.org/2000/svg" p-id="3186" xmlns:xlink="http://www.w3.org/1999/xlink" width="200" height="200"><defs><style type="text/css"></style></defs><path d="M759.5 340.605c0-143.514-115.846-259.855-258.75-259.855s-258.75 116.342-258.75 259.855c0 143.514 115.846 259.855 258.75 259.855 142.904 0 258.75-116.342 258.75-259.855zM287 340.605c0-118.555 95.699-214.663 213.75-214.663s213.75 96.109 213.75 214.663c0 118.555-95.699 214.663-213.75 214.663-118.051 0-213.75-96.109-213.75-214.663z" p-id="3187"></path><path d="M62 939.404v22.596h900v-22.596c0-202.876-208.221-384.135-450-384.135-14.548 0-29.014 0.589-43.364 1.76-12.385 1.010 19.859 11.913 20.864 24.351 13.14-1.072 9.168 19.082 22.5 19.082 218.243 0 405 162.575 405 338.942l22.5-22.596h-855l22.5 22.596c0-120 75.423-229.698 196.931-290.788 11.112-5.587 15.61-19.162 10.048-30.321-5.562-11.159-19.080-15.677-30.192-10.090-136.021 68.386-221.786 193.127-221.786 331.198z" p-id="3188"></path></svg>