<?xml version="1.0" standalone="no"?><!DOCTYPE svg PUBLIC "-//W3C//DTD SVG 1.1//EN" "http://www.w3.org/Graphics/SVG/1.1/DTD/svg11.dtd"><svg t="1545202744180" class="icon" style="" viewBox="0 0 1024 1024" version="1.1" xmlns="http://www.w3.org/2000/svg" p-id="4761" xmlns:xlink="http://www.w3.org/1999/xlink" width="200" height="200"><defs><style type="text/css"></style></defs><path d="M903.765333 227.555556 682.382222 227.555556l0 56.888889 176.184889 0 72.106667 312.888889-234.069333 0-85.191111 113.777778-198.769778 0-85.191111-113.777778L93.326222 597.333333l72.106667-312.888889 176.184889 0L341.617778 227.555556 120.234667 227.555556 28.444444 626.062222 120.661333 995.555556l782.705778 0L995.555556 626.062222 903.765333 227.555556zM858.965333 938.666667 165.034667 938.666667 94.008889 654.222222l204.999111 0 85.191111 113.777778 255.573333 0 85.191111-113.777778 204.999111 0L858.965333 938.666667zM370.005333 517.745778l283.960889 0 0-312.888889 122.197333 0L512 28.444444 247.836444 204.856889l122.197333 0L370.033778 517.745778zM426.808889 153.713778l85.191111-56.888889 85.191111 56.888889 0 307.143111-170.382222 0L426.808889 153.713778z" p-id="4762"></path></svg>