<?xml version="1.0" standalone="no"?><!DOCTYPE svg PUBLIC "-//W3C//DTD SVG 1.1//EN" "http://www.w3.org/Graphics/SVG/1.1/DTD/svg11.dtd"><svg t="1545633331949" class="icon" style="" viewBox="0 0 1024 1024" version="1.1" xmlns="http://www.w3.org/2000/svg" p-id="25470" xmlns:xlink="http://www.w3.org/1999/xlink" width="200" height="200"><defs><style type="text/css"></style></defs><path d="M511.1 123.6c114.7 0 229.4-0.5 344.1 0.2 71.2 0.4 104 32.9 104.3 103.5 0.7 132.5 0.7 265 0 397.4-0.4 70.5-32.4 103.7-104.7 102.5-41.1-0.7-66.7 14.6-85.8 49.3-17.8 32.5-38.1 63.8-58.2 95-23.6 36.7-44.4 39-71.1 4.5-27.6-35.7-52.5-73.6-76.3-112-16.3-26.3-37.2-36.6-67.9-36.3-108.2 1.1-216.5 0.8-324.7 0.2-74.3-0.4-106.2-32.2-106.5-106.3-0.5-130.8-0.6-261.7 0-392.6 0.3-73.3 32.8-105 107.5-105.4 113.1-0.4 226.2 0 339.3 0z m0.6 42c-105 0-209.9-0.6-314.9 0.2-66.6 0.5-90 24-90.4 91.3-0.7 113-0.8 226.1 0 339.1 0.5 66.4 24.1 89.3 91.9 89.8 103.3 0.7 206.7 2.4 310-0.7 48.2-1.4 80.3 16 103.6 55.9 8.1 13.9 17.9 26.9 26.8 40.4 33.5 50.6 37.8 50.7 68-3.5 30.6-54.9 60.7-103.4 139.1-94.3 47.7 5.6 71.1-27.8 71.5-83.3 0.9-114.6 0.8-229.3 0.1-343.9-0.4-66.8-24-90.2-90.9-90.7-104.9-0.8-209.8-0.3-314.8-0.3z" p-id="25471"></path></svg>