<?xml version="1.0" standalone="no"?><!DOCTYPE svg PUBLIC "-//W3C//DTD SVG 1.1//EN" "http://www.w3.org/Graphics/SVG/1.1/DTD/svg11.dtd"><svg t="1545032936541" class="icon" style="" viewBox="0 0 1024 1024" version="1.1" xmlns="http://www.w3.org/2000/svg" p-id="1697" xmlns:xlink="http://www.w3.org/1999/xlink" width="200" height="200"><defs><style type="text/css"></style></defs><path d="M901.12 133.12h-166.2976v-61.44a25.6 25.6 0 0 0-51.2 0v61.44H340.5824v-61.44a25.6 25.6 0 0 0-51.2 0v61.44H122.88a122.88 122.88 0 0 0-122.88 122.88v573.44a122.88 122.88 0 0 0 122.88 122.88h778.24a122.88 122.88 0 0 0 122.88-122.88v-573.44a122.88 122.88 0 0 0-122.88-122.88zM122.88 184.32h166.5024v40.96a25.6 25.6 0 0 0 51.2 0V184.32h343.04v40.96a25.6 25.6 0 0 0 51.2 0V184.32H901.12a71.68 71.68 0 0 1 71.68 71.68v105.0624h-921.6V256A71.68 71.68 0 0 1 122.88 184.32z m778.24 716.8H122.88a71.68 71.68 0 0 1-71.68-71.68V412.2624h921.6V829.44A71.68 71.68 0 0 1 901.12 901.12z" p-id="1698"></path><path d="M322.56 524.9024h-112.64a25.6 25.6 0 0 0 0 51.2h112.64a25.6 25.6 0 0 0 0-51.2zM568.32 524.9024h-112.64a25.6 25.6 0 0 0 0 51.2h112.64a25.6 25.6 0 0 0 0-51.2zM814.08 524.9024h-112.64a25.6 25.6 0 0 0 0 51.2h112.64a25.6 25.6 0 0 0 0-51.2zM322.56 688.7424h-112.64a25.6 25.6 0 0 0 0 51.2h112.64a25.6 25.6 0 0 0 0-51.2zM568.32 688.7424h-112.64a25.6 25.6 0 0 0 0 51.2h112.64a25.6 25.6 0 0 0 0-51.2zM814.08 688.7424h-112.64a25.6 25.6 0 0 0 0 51.2h112.64a25.6 25.6 0 0 0 0-51.2z" p-id="1699"></path></svg>