<?xml version="1.0" standalone="no"?><!DOCTYPE svg PUBLIC "-//W3C//DTD SVG 1.1//EN" "http://www.w3.org/Graphics/SVG/1.1/DTD/svg11.dtd"><svg t="1545632177126" class="icon" style="" viewBox="0 0 1654 1024" version="1.1" xmlns="http://www.w3.org/2000/svg" p-id="22893" xmlns:xlink="http://www.w3.org/1999/xlink" width="323.046875" height="200"><defs><style type="text/css"></style></defs><path d="M0.866462 488.054154c18.432 17.329231 34.185846 31.822769 49.388307 46.710154 71.443692 69.632 142.572308 139.500308 214.094769 208.738461a37.336615 37.336615 0 0 1 12.36677 29.853539c-0.472615 76.406154-0.315077 152.733538-0.157539 229.139692 0 20.322462 1.181538 21.504 21.267693 21.504h1259.598769c20.637538 0 21.267692-0.630154 21.267692-21.267692V21.110154c0-20.401231-0.630154-21.031385-21.582769-21.031385H299.165538c-21.740308 0-22.606769 0.787692-22.606769 21.897846 0 62.227692 0.315077 124.534154-0.551384 186.840616a37.966769 37.966769 0 0 1-9.924923 23.630769A56911.635692 56911.635692 0 0 1 17.250462 476.238769c-4.332308 4.096-9.767385 7.089231-16.384 11.894154z m1175.236923-131.544616c88.457846 0 159.192615 69.316923 159.192615 155.569231 0 86.331077-70.892308 155.411692-159.192615 155.569231-88.221538 0-159.428923-69.395692-159.428923-155.569231s71.207385-155.569231 159.428923-155.569231z m-500.81477 0c88.536615 0 158.956308 69.080615 158.956308 155.569231s-70.734769 155.411692-159.271385 155.411693c-87.985231-0.157538-159.586462-69.947077-159.428923-155.569231 0.157538-85.858462 71.758769-155.411692 159.744-155.411693z" p-id="22894"></path></svg>