<?xml version="1.0" standalone="no"?><!DOCTYPE svg PUBLIC "-//W3C//DTD SVG 1.1//EN" "http://www.w3.org/Graphics/SVG/1.1/DTD/svg11.dtd"><svg t="1544081222678" class="icon" style="" viewBox="0 0 1024 1024" version="1.1" xmlns="http://www.w3.org/2000/svg" p-id="3301" xmlns:xlink="http://www.w3.org/1999/xlink" width="200" height="200"><defs><style type="text/css"></style></defs><path d="M830.4 408h-16v-73.6c0-166.4-136-302.4-302.4-302.4s-302.4 136-302.4 302.4v73.6h-16c-41.6 0-76.8 35.2-76.8 76.8 0 116.8 0 313.6 0 430.4 0 41.6 35.2 76.8 76.8 76.8 212.8 0 424 0 636.8 0 41.6 0 76.8-35.2 76.8-76.8 0-116.8 0-313.6 0-430.4 0-43.2-33.6-76.8-76.8-76.8zM512 70.4c145.6 0 264 118.4 264 264v0 73.6h-528v-73.6c0-145.6 118.4-264 264-264zM868.8 915.2c0 20.8-17.6 38.4-38.4 38.4h-636.8c-20.8 0-38.4-17.6-38.4-38.4v-430.4c0-20.8 17.6-38.4 38.4-38.4h636.8c20.8 0 38.4 17.6 38.4 38.4v430.4z" p-id="3302"></path><path d="M512 595.2c-25.6 0-46.4 22.4-46.4 51.2 0 19.2 9.6 33.6 24 43.2v83.2c0 14.4 11.2 25.6 24 25.6 12.8 0 24-11.2 24-25.6v-84.8c14.4-9.6 24-24 24-43.2-3.2-27.2-24-49.6-49.6-49.6z" p-id="3303"></path></svg>