<?xml version="1.0" standalone="no"?><!DOCTYPE svg PUBLIC "-//W3C//DTD SVG 1.1//EN" "http://www.w3.org/Graphics/SVG/1.1/DTD/svg11.dtd"><svg t="1551233672800" class="icon" style="" viewBox="0 0 1024 1024" version="1.1" xmlns="http://www.w3.org/2000/svg" p-id="1457" xmlns:xlink="http://www.w3.org/1999/xlink" width="200" height="200"><defs><style type="text/css"></style></defs><path d="M884.38619844 385.57820094L534.26209813 32.02571281H305.41721469a57.85404375 57.85404375 0 0 0-42.85484719 17.14193906 57.85404375 57.85404375 0 0 0-17.14193906 42.85484719v731.53223906a58.28259188 58.28259188 0 0 0 59.56823812 59.13968907h521.11494a57.85404375 57.85404375 0 0 0 42.85484719-17.14193907 56.56839844 56.56839844 0 0 0 17.57048719-42.85484718V385.57820094zM534.26209813 110.45008345l273.41392406 275.12811749H539.40467938c-3.42838781 0-4.71403313 0-4.71403313-5.14258125z m296.55554156 713.10465468c0 3.42838781 0 5.14258125-4.71403313 5.14258125H305.41721469c-3.42838781 0-4.71403313 0-4.71403313-5.14258125V91.16540187c0-3.42838781 0-5.14258125 4.71403313-5.14258124H480.26499031v294.41279906a58.71114094 58.71114094 0 0 0 16.71339094 42.85484719 56.99694656 56.99694656 0 0 0 42.85484719 17.14193812h291.84150843zM196.99445187 937.54863125h-5.14258218V141.30557281a56.99694656 56.99694656 0 0 0-37.28371688 16.71339 57.85404375 57.85404375 0 0 0-17.14193812 42.8548472V931.97750094a58.28259188 58.28259188 0 0 0 59.56823719 59.99678625h520.68639187a57.85404375 57.85404375 0 0 0 42.85484719-17.14193907 56.13984937 56.13984937 0 0 0 17.14193812-36.85516875H196.99445187z" p-id="1458"></path></svg>