<?xml version="1.0" standalone="no"?><!DOCTYPE svg PUBLIC "-//W3C//DTD SVG 1.1//EN" "http://www.w3.org/Graphics/SVG/1.1/DTD/svg11.dtd"><svg t="1548300151273" class="icon" style="" viewBox="0 0 1024 1024" version="1.1" xmlns="http://www.w3.org/2000/svg" p-id="2126" xmlns:xlink="http://www.w3.org/1999/xlink" width="200" height="200"><defs><style type="text/css"></style></defs><path d="M893.5 605.5l-38.3-38.3c6.6-27 10.1-55.2 10.1-84.3 0-195.2-158.3-353.4-353.5-353.4h-2.7c-6.4 0-12.8 0.2-19 0.6-48.8 2.9-95 15.8-136.6 36.6l42.9 42.9c9.5 9.6 9.5 25.2 0 34.8-4.7 4.7-11.1 7.1-17.4 7.1-6.3 0-12.6-2.4-17.4-7.1l-51.7-51.7c-8.9 6.2-17.5 12.8-25.8 19.7l-36.5-36.5c-5.4-5.4-12.5-8.1-19.6-8.1-7.1 0-14.2 2.7-19.6 8.1-10.8 10.7-10.8 28.3 0 39.1l83.9 84.1c9 9 9 23.6 0 32.6-4.5 4.5-10.4 6.7-16.3 6.7s-11.7-2.2-16.2-6.7l-43.3-43.4v0.1L181 252.9c-7.1-7.2-16.6-10.8-26.1-10.8s-18.9 3.6-26.1 10.8c-14.4 14.3-14.4 37.8 0 52.1l52.6 52.6c-14.8 38.9-22.9 81.2-22.9 125.3 0 115.6 55.5 218.3 141.3 282.8 18.9 14.1 39.2 26.4 60.6 36.6h303c21.5-10.2 41.8-22.5 60.6-36.6 20.3-15.3 38.9-32.7 55.5-51.9l21.6 21.5c6.1 6.1 14.1 9.2 22.2 9.2s16.1-3.1 22.2-9.2c12.2-12.2 12.2-32.2 0-44.4l-28.8-28.8-36.3-36.4c-9.2-9.1-9.2-24.1 0-33.3 4.5-4.6 10.6-6.8 16.6-6.8 6 0 12.1 2.2 16.7 6.8l25.1 25.1v-0.1l21.4 21.4c4.6 4.5 10.6 6.8 16.6 6.8 6 0 12-2.3 16.7-6.8 9.2-9.1 9.2-24.1 0-33.3z m-652.1-66.7h-6.5v4.5c0 1.8-1.5 3.3-3.4 3.3-1.8 0-3.3-1.5-3.3-3.3v-4.5h-6.5c-1.7 0-3-1.4-3-3s1.3-3 3-3h6.5v-4.5c0-1.8 1.5-3.4 3.3-3.4 1.9 0 3.4 1.5 3.4 3.4v4.5h6.5c1.6 0 3 1.4 3 3s-1.4 3-3 3zM318 378.2c-4.6 0-8.4-3.8-8.4-8.4 0-4.6 3.8-8.3 8.4-8.3 4.6 0 8.4 3.7 8.4 8.3 0 4.6-3.7 8.4-8.4 8.4z m341.7-161.9h-6.5v4.5c0 1.8-1.5 3.3-3.3 3.3-1.8 0-3.4-1.5-3.4-3.3v-4.5H640c-1.6 0-3-1.3-3-3 0-1.6 1.4-3 3-3h6.5v-4.5c0-1.9 1.5-3.4 3.4-3.4 1.8 0 3.3 1.5 3.3 3.4v4.5h6.5c1.7 0 3 1.4 3 3 0 1.7-1.4 3-3 3z m75.1 448c-4.6 0-8.3-3.8-8.3-8.4 0-4.6 3.7-8.4 8.3-8.4 4.6 0 8.4 3.8 8.4 8.4-0.1 4.6-3.8 8.4-8.4 8.4z" fill="#E6E6E6" p-id="2127"></path><path d="M741.3 815.4c0 3.6-1.5 6.9-3.8 9.2-2.4 2.4-5.6 3.8-9.2 3.8H188.9c-7.2 0-13.1-5.9-13.1-13.1 0-3.6 1.5-6.9 3.8-9.2 2.4-2.4 5.7-3.9 9.2-3.9h539.3c7.3 0.1 13.2 6 13.2 13.2zM825.1 873c0 3.6-1.5 6.9-3.9 9.2-2.4 2.4-5.6 3.8-9.2 3.8H503.1c-7.2 0-13.1-5.9-13.1-13.1 0-3.6 1.5-6.9 3.9-9.2 2.4-2.4 5.6-3.8 9.2-3.8H812c7.2 0 13.1 5.9 13.1 13.1zM887.9 815.4c0 3.6-1.5 6.9-3.8 9.2-2.4 2.4-5.7 3.8-9.2 3.8h-94.2c-7.2 0-13.1-5.9-13.1-13.1 0-3.6 1.5-6.9 3.9-9.2 2.4-2.4 5.6-3.9 9.2-3.9h94.2c7.1 0.1 13 6 13 13.2zM455.9 886.1H414c-7.2 0-13.1-5.9-13.1-13.1 0-7.2 5.9-13.1 13.1-13.1h41.9c7.2 0 13.1 5.9 13.1 13.1 0 7.2-5.9 13.1-13.1 13.1zM366.9 886.1H246.5c-7.2 0-13.1-5.9-13.1-13.1 0-7.2 5.9-13.1 13.1-13.1h120.4c7.2 0 13.1 5.9 13.1 13.1 0 7.2-5.9 13.1-13.1 13.1zM709.9 907.4c-14.2 0-25.8 11.6-25.8 25.8 0 14.2 11.6 25.8 25.8 25.8 14.2 0 25.8-11.6 25.8-25.8 0-14.2-11.6-25.8-25.8-25.8z m0 41.9c-8.9 0-16.1-7.2-16.1-16.1 0-8.8 7.2-16 16.1-16 8.8 0 16 7.2 16 16 0 8.9-7.2 16.1-16 16.1zM86.8 481.1c-12.6 0-22.8 10.2-22.8 22.8s10.2 22.8 22.8 22.8 22.8-10.2 22.8-22.8-10.2-22.8-22.8-22.8z m0 35.8c-7.2 0-13-5.8-13-13s5.8-13 13-13 13 5.8 13 13-5.8 13-13 13zM317.2 62.7c-18.1 0-32.8 14.7-32.8 32.8 0 18.1 14.7 32.8 32.8 32.8 18.1 0 32.8-14.7 32.8-32.8 0-18.1-14.7-32.8-32.8-32.8z m0 55.8c-12.7 0-23-10.3-23-23s10.3-23 23-23 23 10.3 23 23-10.3 23-23 23zM343.4 920.1c0 7.2-5.9 13.1-13.1 13.1-7.2 0-13.1-5.9-13.1-13.1 0-7.2 5.9-13.1 13.1-13.1 7.2 0.1 13.1 5.9 13.1 13.1z" fill="#E6E6E6" p-id="2128"></path><path d="M945.5 299.7m-15.9 0a15.9 15.9 0 1 0 31.8 0 15.9 15.9 0 1 0-31.8 0Z" fill="#E6E6E6" p-id="2129"></path><path d="M827.7 226.4m-13.1 0a13.1 13.1 0 1 0 26.2 0 13.1 13.1 0 1 0-26.2 0Z" fill="#E6E6E6" p-id="2130"></path><path d="M640.4 397.1c-34.3-27.5-79.9-42.6-128.4-42.6s-94.1 15.1-128.4 42.6c-34.5 27.6-53.5 64.4-53.5 103.5 0 48.7 30 94.1 80.4 121.3 4.8 2.6 2 11.9-0.7 21-2.6 8.5-5 16.6-2.1 21.8 1.2 2.1 3.1 3.5 5.7 4.2 1.6 0.4 3.5 0.6 5.6 0.6 12.1 0 32.1-6.2 51.5-12.3 17.1-5.3 33.2-10.4 41.4-10.4 48.5 0 94.1-15.1 128.4-42.6 34.5-27.6 53.5-64.4 53.5-103.5 0-39.2-19-75.9-53.4-103.6zM512 641.8c-9 0-25.5 5.2-42.9 10.6C448 659 424 666.5 414.7 664c-1.6-0.4-2.2-1.2-2.6-1.8-1.9-3.3 0.5-11.1 2.5-17.9 3.1-10.4 6.7-22.3-1.7-26.8-48.7-26.3-77.7-70-77.7-116.9 0-77.8 79.3-141.1 176.8-141.1s176.8 63.3 176.8 141.1c0 77.9-79.3 141.2-176.8 141.2z" fill="#A8A8A8" p-id="2131"></path><path d="M688.8 500.7c0 77.8-79.3 141.1-176.8 141.1-9 0-25.5 5.2-42.9 10.6C448 659 424 666.5 414.7 664c-1.6-0.4-2.2-1.2-2.6-1.8-1.9-3.3 0.5-11.1 2.5-17.9 3.1-10.4 6.7-22.3-1.7-26.8-48.7-26.3-77.7-70-77.7-116.9 0-77.8 79.3-141.1 176.8-141.1s176.8 63.3 176.8 141.2z" fill="#FFFFFF" p-id="2132"></path><path d="M436.5 500m-17.2 0a17.2 17.2 0 1 0 34.4 0 17.2 17.2 0 1 0-34.4 0Z" fill="#A8A8A8" p-id="2133"></path><path d="M512 500m-17.2 0a17.2 17.2 0 1 0 34.4 0 17.2 17.2 0 1 0-34.4 0Z" fill="#A8A8A8" p-id="2134"></path><path d="M587.5 500m-17.2 0a17.2 17.2 0 1 0 34.4 0 17.2 17.2 0 1 0-34.4 0Z" fill="#A8A8A8" p-id="2135"></path></svg>