<?xml version="1.0" standalone="no"?><!DOCTYPE svg PUBLIC "-//W3C//DTD SVG 1.1//EN" "http://www.w3.org/Graphics/SVG/1.1/DTD/svg11.dtd"><svg t="1551233719051" class="icon" style="" viewBox="0 0 1024 1024" version="1.1" xmlns="http://www.w3.org/2000/svg" p-id="1817" xmlns:xlink="http://www.w3.org/1999/xlink" width="200" height="200"><defs><style type="text/css"></style></defs><path d="M357.9 594c-16.6 0-30-13.4-30-30s13.4-30 30-30h244.3l-14-16.9c-10.6-12.8-8.8-31.7 4-42.2 12.8-10.6 31.7-8.8 42.2 4l54.7 66c7.4 9 9 21.4 4.1 31.9S677.7 594 666.1 594H357.9z m54.8 190.1c-8.6 0-17.2-3.7-23.1-10.9l-54.7-66c-7.4-9-9-21.4-4.1-31.9s15.5-17.2 27.2-17.2h308.1c16.6 0 30 13.4 30 30s-13.4 30-30 30H421.8l14 16.9c10.6 12.8 8.8 31.7-4 42.2-5.6 4.6-12.4 6.9-19.1 6.9z m392.4-355.8H219c-50.1 0-91-40.8-91-91V216.1c0-50.1 40.8-91 91-91h586.2c50.1 0 91 40.8 91 91v121.3c-0.1 50.1-40.9 90.9-91.1 90.9zM219 185.8c-16.7 0-30.3 13.6-30.3 30.3v121.3c0 16.7 13.6 30.3 30.3 30.3h586.2c16.7 0 30.3-13.6 30.3-30.3V216.1c0-16.7-13.6-30.3-30.3-30.3H219z m542 706.3H260c-49.6 0-90-40.4-90-90V416.6c0-16.6 13.4-30 30-30s30 13.4 30 30v385.5c0 16.5 13.5 30 30 30h501c16.5 0 30-13.5 30-30V416.6c0-16.6 13.4-30 30-30s30 13.4 30 30v385.5c0 49.6-40.3 90-90 90z" p-id="1818"></path></svg>