<?xml version="1.0" standalone="no"?><!DOCTYPE svg PUBLIC "-//W3C//DTD SVG 1.1//EN" "http://www.w3.org/Graphics/SVG/1.1/DTD/svg11.dtd"><svg t="1545889561793" class="icon" style="" viewBox="0 0 1161 1024" version="1.1" xmlns="http://www.w3.org/2000/svg" p-id="26002" xmlns:xlink="http://www.w3.org/1999/xlink" width="226.7578125" height="200"><defs><style type="text/css"></style></defs><path d="M799.591786 699.113103C719.363215 699.113103 652.732073 759.291085 641.236952 837.491002L502.797098 837.491002C491.300651 759.291085 424.670837 699.113103 344.442264 699.113103 256.15438 699.113103 184.327106 771.986186 184.327106 861.556545 184.327106 951.12691 256.15438 1023.999993 344.442264 1023.999993 420.38005 1023.999993 484.138735 970.08752 500.49065 898.00788L643.5434 898.00788C659.895315 970.086175 723.654001 1023.999993 799.591786 1023.999993 887.879673 1023.999993 959.708269 951.12691 959.708269 861.556545 959.708269 771.986186 887.879673 699.113103 799.591786 699.113103ZM344.442262 963.483109C289.045111 963.483109 243.976603 917.759249 243.976603 861.556545 243.976603 805.353847 289.045111 759.629981 344.442262 759.629981 399.839413 759.629981 444.907922 805.353847 444.907922 861.556545 444.907922 917.759249 399.839413 963.483109 344.442262 963.483109ZM799.591786 963.483109C744.194635 963.483109 699.126127 917.759249 699.126127 861.556545 699.126127 805.353847 744.194635 759.629981 799.591786 759.629981 854.988937 759.629981 900.058774 805.353847 900.058774 861.556545 900.058774 917.759249 854.988937 963.483109 799.591786 963.483109ZM1107.265222 105.872848C1104.863334 73.087492 1091.952531 46.000136 1069.927287 27.542488 1033.664369-2.849089 985.341645-0.529276 973.948593 0.51027L445.25389 1.404575 445.163753 1.404575C402.688009 1.404575 378.763259 18.685506 366.171912 33.188041 341.066101 62.108385 342.276323 99.346438 343.171065 109.641032L343.171065 213.194828 100.379054 343.42581C44.136206 368.116697 36.174987 439.740442 35.862158 442.802597 35.756114 443.839453 35.701767 444.881687 35.701767 445.925267L35.631514 861.623788C35.628862 878.335863 48.979746 891.884919 65.45096 891.887609L65.456262 891.887609C81.924825 891.887609 95.27836 878.343926 95.281011 861.634546L95.351264 448.02184C96.430257 441.234536 102.8048 407.865528 124.566262 398.75303 125.43847 398.388584 126.293447 397.981104 127.128539 397.533279L386.935238 258.176352C396.707151 252.93559 402.820562 242.640996 402.820562 231.426546L402.820563 108.114662C402.820563 106.658222 402.80068 105.813676 402.599197 104.409684 402.057049 98.750683 402.55678 82.622262 411.119796 72.977216 417.633521 65.63988 429.0849 61.921454 445.227379 61.921454L445.288354 61.921454 975.506104 61.024459C976.640771 61.023114 977.775439 60.954528 978.902153 60.822736 979.228235 60.785081 1012.285986 57.726961 1031.942485 74.199656 1041.197438 81.95792 1046.359108 93.450748 1047.700555 109.316929L1047.700555 861.556545C1047.700555 878.268621 1061.052764 891.814987 1077.525306 891.814987 1093.997848 891.814987 1107.350057 878.268621 1107.350057 861.556545L1107.350057 108.114662C1107.347401 107.366942 1107.319569 106.619222 1107.265222 105.872848Z" p-id="26003"></path><path d="M372.333042 577.436517C388.804257 577.436517 402.157791 563.89015 402.157791 547.178078L402.157791 381.316101C402.157791 364.605373 388.804257 351.057661 372.333042 351.057661 355.861828 351.057661 342.508294 364.605373 342.508294 381.316101L342.508294 516.919637 214.151854 516.919637C197.68064 516.919637 184.327106 530.466004 184.327106 547.178078 184.327106 563.89015 197.68064 577.436517 214.151854 577.436517L372.333042 577.436517Z" p-id="26004"></path></svg>