<?xml version="1.0" standalone="no"?><!DOCTYPE svg PUBLIC "-//W3C//DTD SVG 1.1//EN" "http://www.w3.org/Graphics/SVG/1.1/DTD/svg11.dtd"><svg t="1545359306672" class="icon" style="" viewBox="0 0 1024 1024" version="1.1" xmlns="http://www.w3.org/2000/svg" p-id="16033" xmlns:xlink="http://www.w3.org/1999/xlink" width="200" height="200"><defs><style type="text/css"></style></defs><path d="M968.376 1012.93l-903.547 0.021c-21.621-0.02-41.43-19.891-41.482-41.482V715.33c0-41.606 20.895-63.38 42.829-42.522l122.194 96.174c16.415 14.06 41.088 33.183 54.82 16.507l140.052-170.046c13.737-16.67 38.508-40.207 55.056-26.29l120.514 104.923c16.543 13.896 50.79 38.165 64.251 21.248l299.858-361.38c40.504-46.233 85.673-35.389 85.673 21.259v596.255c0 21.6-18.606 41.492-40.218 41.472zM616.72 569.104a66.401 66.401 0 0 1-45.414 25.175c-17.956 2.13-35.855-3.625-49.638-15.211L385.73 464.579 249.196 644.797a66.478 66.478 0 0 1-52.89 26.317 66.273 66.273 0 0 1-42-15.032L35.155 558.587c-28.37-23.194-32.553-65.019-9.35-93.389 23.184-28.41 65.004-32.563 93.359-9.349l65.874 53.883L322.15 328.724a66.324 66.324 0 0 1 45.517-25.886c18.202-1.987 36.199 3.502 50.115 15.17L554.46 433.137l176.594-221.502-49.213-40.878c-34.919-28.994-27.162-60.416 17.239-69.8l255.933-54.135c44.396-9.39 58.127 12.396 30.515 48.43L616.72 569.103z" p-id="16034"></path></svg>